<?xml version="1.0" encoding="utf-8"?>
<!-- Generator: Adobe Illustrator 13.0.0, SVG Export Plug-In . SVG Version: 6.00 Build 14948)  -->
<!DOCTYPE svg PUBLIC "-//W3C//DTD SVG 1.1//EN" "http://www.w3.org/Graphics/SVG/1.1/DTD/svg11.dtd">
<svg version="1.1" id="Layer_1" xmlns="http://www.w3.org/2000/svg" xmlns:xlink="http://www.w3.org/1999/xlink" x="0px" y="0px"
	 width="4px" height="937.921px" viewBox="0 0 4 937.921" enable-background="new 0 0 4 937.921" xml:space="preserve">
<g>
	<g>
		<polygon fill="#0066FF" points="1,90.047 0,87.702 1,85.356 3,85.356 4,87.702 3,90.047 		"/>
		<polygon fill="#0066FF" points="1,95.737 0,93.392 1,91.047 3,91.047 4,93.392 3,95.737 		"/>
		<polygon fill="#0066FF" points="1,101.428 0,99.083 1,96.737 3,96.737 4,99.083 3,101.428 		"/>
		<polygon fill="#0066FF" points="1,107.118 0,104.773 1,102.428 3,102.428 4,104.773 3,107.118 		"/>
		<polygon fill="#0066FF" points="1,112.809 0,110.463 1,108.118 3,108.118 4,110.463 3,112.809 		"/>
		<polygon fill="#0066FF" points="1,118.499 0,116.154 1,113.809 3,113.809 4,116.154 3,118.499 		"/>
		<polygon fill="#0066FF" points="1,124.189 0,121.844 1,119.499 3,119.499 4,121.844 3,124.189 		"/>
		<polygon fill="#0066FF" points="1,129.88 0,127.535 1,125.189 3,125.189 4,127.535 3,129.88 		"/>
		<polygon fill="#0066FF" points="1,135.57 0,133.225 1,130.88 3,130.88 4,133.225 3,135.57 		"/>
		<polygon fill="#0066FF" points="1,141.261 0,138.916 1,136.57 3,136.57 4,138.916 3,141.261 		"/>
		<polygon fill="#0066FF" points="1,146.951 0,144.606 1,142.261 3,142.261 4,144.606 3,146.951 		"/>
		<polygon fill="#0066FF" points="1,152.642 0,150.296 1,147.951 3,147.951 4,150.296 3,152.642 		"/>
		<polygon fill="#0066FF" points="1,158.332 0,155.987 1,153.642 3,153.642 4,155.987 3,158.332 		"/>
		<polygon fill="#0066FF" points="1,164.022 0,161.677 1,159.332 3,159.332 4,161.677 3,164.022 		"/>
		<polygon fill="#0066FF" points="1,169.713 0,167.368 1,165.022 3,165.022 4,167.368 3,169.713 		"/>
	</g>
	<g>
		<polygon fill="#0066FF" points="1,175.403 0,173.058 1,170.713 3,170.713 4,173.058 3,175.403 		"/>
		<polygon fill="#0066FF" points="1,181.094 0,178.749 1,176.403 3,176.403 4,178.749 3,181.094 		"/>
		<polygon fill="#0066FF" points="1,186.784 0,184.439 1,182.094 3,182.094 4,184.439 3,186.784 		"/>
		<polygon fill="#0066FF" points="1,192.475 0,190.129 1,187.784 3,187.784 4,190.129 3,192.475 		"/>
		<polygon fill="#0066FF" points="1,198.165 0,195.82 1,193.475 3,193.475 4,195.82 3,198.165 		"/>
		<polygon fill="#0066FF" points="1,203.855 0,201.51 1,199.165 3,199.165 4,201.51 3,203.855 		"/>
		<polygon fill="#0066FF" points="1,209.546 0,207.201 1,204.855 3,204.855 4,207.201 3,209.546 		"/>
		<polygon fill="#0066FF" points="1,215.236 0,212.891 1,210.546 3,210.546 4,212.891 3,215.236 		"/>
		<polygon fill="#0066FF" points="1,220.927 0,218.582 1,216.236 3,216.236 4,218.582 3,220.927 		"/>
		<polygon fill="#0066FF" points="1,226.617 0,224.272 1,221.927 3,221.927 4,224.272 3,226.617 		"/>
		<polygon fill="#0066FF" points="1,232.308 0,229.962 1,227.617 3,227.617 4,229.962 3,232.308 		"/>
		<polygon fill="#0066FF" points="1,237.998 0,235.653 1,233.308 3,233.308 4,235.653 3,237.998 		"/>
		<polygon fill="#0066FF" points="1,243.688 0,241.343 1,238.998 3,238.998 4,241.343 3,243.688 		"/>
		<polygon fill="#0066FF" points="1,249.379 0,247.034 1,244.688 3,244.688 4,247.034 3,249.379 		"/>
		<polygon fill="#0066FF" points="1,255.069 0,252.724 1,250.379 3,250.379 4,252.724 3,255.069 		"/>
	</g>
	<g>
		<polygon fill="#0066FF" points="1,260.76 0,258.415 1,256.069 3,256.069 4,258.415 3,260.76 		"/>
		<polygon fill="#0066FF" points="1,266.45 0,264.105 1,261.76 3,261.76 4,264.105 3,266.45 		"/>
		<polygon fill="#0066FF" points="1,272.141 0,269.795 1,267.45 3,267.45 4,269.795 3,272.141 		"/>
		<polygon fill="#0066FF" points="1,277.831 0,275.486 1,273.141 3,273.141 4,275.486 3,277.831 		"/>
		<polygon fill="#0066FF" points="1,283.521 0,281.176 1,278.831 3,278.831 4,281.176 3,283.521 		"/>
		<polygon fill="#0066FF" points="1,289.212 0,286.867 1,284.521 3,284.521 4,286.867 3,289.212 		"/>
		<polygon fill="#0066FF" points="1,294.902 0,292.557 1,290.212 3,290.212 4,292.557 3,294.902 		"/>
		<polygon fill="#0066FF" points="1,300.593 0,298.248 1,295.902 3,295.902 4,298.248 3,300.593 		"/>
		<polygon fill="#0066FF" points="1,306.283 0,303.938 1,301.593 3,301.593 4,303.938 3,306.283 		"/>
		<polygon fill="#0066FF" points="1,311.974 0,309.628 1,307.283 3,307.283 4,309.628 3,311.974 		"/>
		<polygon fill="#0066FF" points="1,317.664 0,315.319 1,312.974 3,312.974 4,315.319 3,317.664 		"/>
		<polygon fill="#0066FF" points="1,323.354 0,321.009 1,318.664 3,318.664 4,321.009 3,323.354 		"/>
		<polygon fill="#0066FF" points="1,329.045 0,326.7 1,324.354 3,324.354 4,326.7 3,329.045 		"/>
		<polygon fill="#0066FF" points="1,334.735 0,332.39 1,330.045 3,330.045 4,332.39 3,334.735 		"/>
		<polygon fill="#0066FF" points="1,340.426 0,338.081 1,335.735 3,335.735 4,338.081 3,340.426 		"/>
	</g>
	<g>
		<polygon fill="#0066FF" points="1,346.116 0,343.771 1,341.426 3,341.426 4,343.771 3,346.116 		"/>
		<polygon fill="#0066FF" points="1,351.807 0,349.461 1,347.116 3,347.116 4,349.461 3,351.807 		"/>
		<polygon fill="#0066FF" points="1,357.497 0,355.152 1,352.807 3,352.807 4,355.152 3,357.497 		"/>
		<polygon fill="#0066FF" points="1,363.188 0,360.842 1,358.497 3,358.497 4,360.842 3,363.188 		"/>
		<polygon fill="#0066FF" points="1,368.878 0,366.533 1,364.188 3,364.188 4,366.533 3,368.878 		"/>
		<polygon fill="#0066FF" points="1,374.568 0,372.223 1,369.878 3,369.878 4,372.223 3,374.568 		"/>
		<polygon fill="#0066FF" points="1,380.259 0,377.914 1,375.568 3,375.568 4,377.914 3,380.259 		"/>
		<polygon fill="#0066FF" points="1,385.949 0,383.604 1,381.259 3,381.259 4,383.604 3,385.949 		"/>
		<polygon fill="#0066FF" points="1,391.64 0,389.294 1,386.949 3,386.949 4,389.294 3,391.64 		"/>
		<polygon fill="#0066FF" points="1,397.33 0,394.985 1,392.64 3,392.64 4,394.985 3,397.33 		"/>
		<polygon fill="#0066FF" points="1,403.021 0,400.675 1,398.33 3,398.33 4,400.675 3,403.021 		"/>
		<polygon fill="#0066FF" points="1,408.711 0,406.366 1,404.021 3,404.021 4,406.366 3,408.711 		"/>
		<polygon fill="#0066FF" points="1,414.401 0,412.056 1,409.711 3,409.711 4,412.056 3,414.401 		"/>
		<polygon fill="#0066FF" points="1,420.092 0,417.747 1,415.401 3,415.401 4,417.747 3,420.092 		"/>
		<polygon fill="#0066FF" points="1,425.782 0,423.437 1,421.092 3,421.092 4,423.437 3,425.782 		"/>
	</g>
	<g>
		<polygon fill="#0066FF" points="1,431.473 0,429.127 1,426.782 3,426.782 4,429.127 3,431.473 		"/>
		<polygon fill="#0066FF" points="1,437.163 0,434.818 1,432.473 3,432.473 4,434.818 3,437.163 		"/>
		<polygon fill="#0066FF" points="1,442.854 0,440.508 1,438.163 3,438.163 4,440.508 3,442.854 		"/>
		<polygon fill="#0066FF" points="1,448.544 0,446.199 1,443.854 3,443.854 4,446.199 3,448.544 		"/>
		<polygon fill="#0066FF" points="1,454.234 0,451.889 1,449.544 3,449.544 4,451.889 3,454.234 		"/>
		<polygon fill="#0066FF" points="1,459.925 0,457.58 1,455.234 3,455.234 4,457.58 3,459.925 		"/>
		<polygon fill="#0066FF" points="1,465.615 0,463.27 1,460.925 3,460.925 4,463.27 3,465.615 		"/>
		<polygon fill="#0066FF" points="1,471.306 0,468.96 1,466.615 3,466.615 4,468.96 3,471.306 		"/>
		<polygon fill="#0066FF" points="1,476.996 0,474.651 1,472.306 3,472.306 4,474.651 3,476.996 		"/>
		<polygon fill="#0066FF" points="1,482.687 0,480.341 1,477.996 3,477.996 4,480.341 3,482.687 		"/>
		<polygon fill="#0066FF" points="1,488.377 0,486.032 1,483.687 3,483.687 4,486.032 3,488.377 		"/>
		<polygon fill="#0066FF" points="1,494.067 0,491.722 1,489.377 3,489.377 4,491.722 3,494.067 		"/>
		<polygon fill="#0066FF" points="1,499.758 0,497.413 1,495.067 3,495.067 4,497.413 3,499.758 		"/>
		<polygon fill="#0066FF" points="1,505.448 0,503.103 1,500.758 3,500.758 4,503.103 3,505.448 		"/>
		<polygon fill="#0066FF" points="1,511.139 0,508.793 1,506.448 3,506.448 4,508.793 3,511.139 		"/>
	</g>
	<g>
		<polygon fill="#0066FF" points="1,516.829 0,514.484 1,512.139 3,512.139 4,514.484 3,516.829 		"/>
		<polygon fill="#0066FF" points="1,522.52 0,520.174 1,517.829 3,517.829 4,520.174 3,522.52 		"/>
		<polygon fill="#0066FF" points="1,528.21 0,525.865 1,523.52 3,523.52 4,525.865 3,528.21 		"/>
		<polygon fill="#0066FF" points="1,533.9 0,531.555 1,529.21 3,529.21 4,531.555 3,533.9 		"/>
		<polygon fill="#0066FF" points="1,539.591 0,537.246 1,534.9 3,534.9 4,537.246 3,539.591 		"/>
		<polygon fill="#0066FF" points="1,545.281 0,542.936 1,540.591 3,540.591 4,542.936 3,545.281 		"/>
		<polygon fill="#0066FF" points="1,550.972 0,548.627 1,546.281 3,546.281 4,548.627 3,550.972 		"/>
		<polygon fill="#0066FF" points="1,556.662 0,554.316 1,551.972 3,551.972 4,554.316 3,556.662 		"/>
		<polygon fill="#0066FF" points="1,562.353 0,560.008 1,557.662 3,557.662 4,560.008 3,562.353 		"/>
		<polygon fill="#0066FF" points="1,568.043 0,565.697 1,563.353 3,563.353 4,565.697 3,568.043 		"/>
		<polygon fill="#0066FF" points="1,573.733 0,571.389 1,569.043 3,569.043 4,571.389 3,573.733 		"/>
		<polygon fill="#0066FF" points="1,579.424 0,577.078 1,574.733 3,574.733 4,577.078 3,579.424 		"/>
		<polygon fill="#0066FF" points="1,585.114 0,582.77 1,580.424 3,580.424 4,582.77 3,585.114 		"/>
		<polygon fill="#0066FF" points="1,590.805 0,588.459 1,586.114 3,586.114 4,588.459 3,590.805 		"/>
		<polygon fill="#0066FF" points="1,596.495 0,594.15 1,591.805 3,591.805 4,594.15 3,596.495 		"/>
	</g>
	<g>
		<polygon fill="#0066FF" points="1,602.186 0,599.841 1,597.495 3,597.495 4,599.841 3,602.186 		"/>
		<polygon fill="#0066FF" points="1,607.876 0,605.53 1,603.186 3,603.186 4,605.53 3,607.876 		"/>
		<polygon fill="#0066FF" points="1,613.566 0,611.222 1,608.876 3,608.876 4,611.222 3,613.566 		"/>
		<polygon fill="#0066FF" points="1,619.257 0,616.911 1,614.566 3,614.566 4,616.911 3,619.257 		"/>
		<polygon fill="#0066FF" points="1,624.947 0,622.603 1,620.257 3,620.257 4,622.603 3,624.947 		"/>
		<polygon fill="#0066FF" points="1,630.638 0,628.292 1,625.947 3,625.947 4,628.292 3,630.638 		"/>
		<polygon fill="#0066FF" points="1,636.328 0,633.983 1,631.638 3,631.638 4,633.983 3,636.328 		"/>
		<polygon fill="#0066FF" points="1,642.019 0,639.673 1,637.328 3,637.328 4,639.673 3,642.019 		"/>
		<polygon fill="#0066FF" points="1,647.709 0,645.364 1,643.019 3,643.019 4,645.364 3,647.709 		"/>
		<polygon fill="#0066FF" points="1,653.399 0,651.054 1,648.709 3,648.709 4,651.054 3,653.399 		"/>
		<polygon fill="#0066FF" points="1,659.09 0,656.745 1,654.399 3,654.399 4,656.745 3,659.09 		"/>
		<polygon fill="#0066FF" points="1,664.78 0,662.435 1,660.09 3,660.09 4,662.435 3,664.78 		"/>
		<polygon fill="#0066FF" points="1,670.471 0,668.126 1,665.78 3,665.78 4,668.126 3,670.471 		"/>
		<polygon fill="#0066FF" points="1,676.161 0,673.815 1,671.471 3,671.471 4,673.815 3,676.161 		"/>
		<polygon fill="#0066FF" points="1,681.852 0,679.507 1,677.161 3,677.161 4,679.507 3,681.852 		"/>
	</g>
	<g>
		<polygon fill="#0066FF" points="1,687.542 0,685.196 1,682.852 3,682.852 4,685.196 3,687.542 		"/>
		<polygon fill="#0066FF" points="1,693.232 0,690.888 1,688.542 3,688.542 4,690.888 3,693.232 		"/>
		<polygon fill="#0066FF" points="1,698.923 0,696.577 1,694.232 3,694.232 4,696.577 3,698.923 		"/>
		<polygon fill="#0066FF" points="1,704.613 0,702.269 1,699.923 3,699.923 4,702.269 3,704.613 		"/>
		<polygon fill="#0066FF" points="1,710.304 0,707.958 1,705.613 3,705.613 4,707.958 3,710.304 		"/>
		<polygon fill="#0066FF" points="1,715.994 0,713.649 1,711.304 3,711.304 4,713.649 3,715.994 		"/>
		<polygon fill="#0066FF" points="1,721.685 0,719.339 1,716.994 3,716.994 4,719.339 3,721.685 		"/>
		<polygon fill="#0066FF" points="1,727.375 0,725.03 1,722.685 3,722.685 4,725.03 3,727.375 		"/>
		<polygon fill="#0066FF" points="1,733.065 0,730.72 1,728.375 3,728.375 4,730.72 3,733.065 		"/>
		<polygon fill="#0066FF" points="1,738.756 0,736.411 1,734.065 3,734.065 4,736.411 3,738.756 		"/>
		<polygon fill="#0066FF" points="1,744.446 0,742.101 1,739.756 3,739.756 4,742.101 3,744.446 		"/>
		<polygon fill="#0066FF" points="1,750.137 0,747.792 1,745.446 3,745.446 4,747.792 3,750.137 		"/>
		<polygon fill="#0066FF" points="1,755.827 0,753.481 1,751.137 3,751.137 4,753.481 3,755.827 		"/>
		<polygon fill="#0066FF" points="1,761.518 0,759.173 1,756.827 3,756.827 4,759.173 3,761.518 		"/>
		<polygon fill="#0066FF" points="1,767.208 0,764.862 1,762.518 3,762.518 4,764.862 3,767.208 		"/>
	</g>
	<g>
		<polygon fill="#0066FF" points="1,772.898 0,770.554 1,768.208 3,768.208 4,770.554 3,772.898 		"/>
		<polygon fill="#0066FF" points="1,778.589 0,776.243 1,773.898 3,773.898 4,776.243 3,778.589 		"/>
		<polygon fill="#0066FF" points="1,784.279 0,781.935 1,779.589 3,779.589 4,781.935 3,784.279 		"/>
		<polygon fill="#0066FF" points="1,789.97 0,787.624 1,785.279 3,785.279 4,787.624 3,789.97 		"/>
		<polygon fill="#0066FF" points="1,795.66 0,793.315 1,790.97 3,790.97 4,793.315 3,795.66 		"/>
		<polygon fill="#0066FF" points="1,801.351 0,799.005 1,796.66 3,796.66 4,799.005 3,801.351 		"/>
		<polygon fill="#0066FF" points="1,807.041 0,804.696 1,802.351 3,802.351 4,804.696 3,807.041 		"/>
		<polygon fill="#0066FF" points="1,812.731 0,810.386 1,808.041 3,808.041 4,810.386 3,812.731 		"/>
		<polygon fill="#0066FF" points="1,818.422 0,816.077 1,813.731 3,813.731 4,816.077 3,818.422 		"/>
		<polygon fill="#0066FF" points="1,824.112 0,821.767 1,819.422 3,819.422 4,821.767 3,824.112 		"/>
		<polygon fill="#0066FF" points="1,829.803 0,827.458 1,825.112 3,825.112 4,827.458 3,829.803 		"/>
		<polygon fill="#0066FF" points="1,835.493 0,833.147 1,830.803 3,830.803 4,833.147 3,835.493 		"/>
		<polygon fill="#0066FF" points="1,841.184 0,838.839 1,836.493 3,836.493 4,838.839 3,841.184 		"/>
		<polygon fill="#0066FF" points="1,846.874 0,844.528 1,842.184 3,842.184 4,844.528 3,846.874 		"/>
		<polygon fill="#0066FF" points="1,852.564 0,850.22 1,847.874 3,847.874 4,850.22 3,852.564 		"/>
	</g>
	<g>
		<polygon fill="#0066FF" points="1,858.255 0,855.909 1,853.564 3,853.564 4,855.909 3,858.255 		"/>
		<polygon fill="#0066FF" points="1,863.945 0,861.601 1,859.255 3,859.255 4,861.601 3,863.945 		"/>
		<polygon fill="#0066FF" points="1,869.636 0,867.29 1,864.945 3,864.945 4,867.29 3,869.636 		"/>
		<polygon fill="#0066FF" points="1,875.326 0,872.981 1,870.636 3,870.636 4,872.981 3,875.326 		"/>
		<polygon fill="#0066FF" points="1,881.017 0,878.671 1,876.326 3,876.326 4,878.671 3,881.017 		"/>
		<polygon fill="#0066FF" points="1,886.707 0,884.362 1,882.017 3,882.017 4,884.362 3,886.707 		"/>
		<polygon fill="#0066FF" points="1,892.397 0,890.052 1,887.707 3,887.707 4,890.052 3,892.397 		"/>
		<polygon fill="#0066FF" points="1,898.088 0,895.743 1,893.397 3,893.397 4,895.743 3,898.088 		"/>
		<polygon fill="#0066FF" points="1,903.778 0,901.433 1,899.088 3,899.088 4,901.433 3,903.778 		"/>
		<polygon fill="#0066FF" points="1,909.469 0,907.124 1,904.778 3,904.778 4,907.124 3,909.469 		"/>
		<polygon fill="#0066FF" points="1,915.159 0,912.813 1,910.469 3,910.469 4,912.813 3,915.159 		"/>
		<polygon fill="#0066FF" points="1,920.85 0,918.505 1,916.159 3,916.159 4,918.505 3,920.85 		"/>
		<polygon fill="#0066FF" points="1,926.54 0,924.194 1,921.85 3,921.85 4,924.194 3,926.54 		"/>
		<polygon fill="#0066FF" points="1,932.23 0,929.886 1,927.54 3,927.54 4,929.886 3,932.23 		"/>
		<polygon fill="#0066FF" points="1,937.921 0,935.575 1,933.23 3,933.23 4,935.575 3,937.921 		"/>
	</g>
	<g>
		<polygon fill="#0066FF" points="1,4.69 0,2.345 1,0 3,0 4,2.345 3,4.69 		"/>
		<polygon fill="#0066FF" points="1,10.381 0,8.036 1,5.69 3,5.69 4,8.036 3,10.381 		"/>
		<polygon fill="#0066FF" points="1,16.071 0,13.726 1,11.381 3,11.381 4,13.726 3,16.071 		"/>
		<polygon fill="#0066FF" points="1,21.762 0,19.417 1,17.071 3,17.071 4,19.417 3,21.762 		"/>
		<polygon fill="#0066FF" points="1,27.452 0,25.107 1,22.762 3,22.762 4,25.107 3,27.452 		"/>
		<polygon fill="#0066FF" points="1,33.143 0,30.797 1,28.452 3,28.452 4,30.797 3,33.143 		"/>
		<polygon fill="#0066FF" points="1,38.833 0,36.488 1,34.143 3,34.143 4,36.488 3,38.833 		"/>
		<polygon fill="#0066FF" points="1,44.523 0,42.178 1,39.833 3,39.833 4,42.178 3,44.523 		"/>
		<polygon fill="#0066FF" points="1,50.214 0,47.869 1,45.523 3,45.523 4,47.869 3,50.214 		"/>
		<polygon fill="#0066FF" points="1,55.904 0,53.559 1,51.214 3,51.214 4,53.559 3,55.904 		"/>
		<polygon fill="#0066FF" points="1,61.595 0,59.25 1,56.904 3,56.904 4,59.25 3,61.595 		"/>
		<polygon fill="#0066FF" points="1,67.285 0,64.94 1,62.595 3,62.595 4,64.94 3,67.285 		"/>
		<polygon fill="#0066FF" points="1,72.976 0,70.63 1,68.285 3,68.285 4,70.63 3,72.976 		"/>
		<polygon fill="#0066FF" points="1,78.666 0,76.321 1,73.976 3,73.976 4,76.321 3,78.666 		"/>
		<polygon fill="#0066FF" points="1,84.356 0,82.011 1,79.666 3,79.666 4,82.011 3,84.356 		"/>
	</g>
</g>
</svg>
