<?xml version="1.0" encoding="utf-8"?>
<!-- Generator: Adobe Illustrator 13.0.0, SVG Export Plug-In . SVG Version: 6.00 Build 14948)  -->
<!DOCTYPE svg PUBLIC "-//W3C//DTD SVG 1.1//EN" "http://www.w3.org/Graphics/SVG/1.1/DTD/svg11.dtd">
<svg version="1.1" id="Layer_1" xmlns="http://www.w3.org/2000/svg" xmlns:xlink="http://www.w3.org/1999/xlink" x="0px" y="0px"
	 width="1184.5px" height="624.052px" viewBox="0 0 1184.5 624.052" enable-background="new 0 0 1184.5 624.052"
	 xml:space="preserve">
<path fill="none" stroke="#0066FF" stroke-width="8" d="M298,31.052c162.372,0,294,131.628,294,294c0,162.371-131.628,294-294,294
	c-162.371,0-294-131.629-294-294"/>
<path fill="none" stroke="#0066FF" stroke-width="4.5408" d="M565,325.052c0,147.459-119.541,267-267,267
	c-147.46,0-267-119.541-267-267c0-147.46,119.54-267,267-267"/>
<g>
	<g>
		<path fill="none" d="M202.5,0.552"/>
		<path fill="#0066FF" d="M202.125,1.104c0.728,0,2.055-1.104,0.749-1.104C202.147,0,200.819,1.104,202.125,1.104L202.125,1.104z"/>
	</g>
</g>
<polygon fill="#0066FF" points="310.99,68.053 298,90.552 285.01,68.053 "/>
<polygon fill="#FFFFFF" stroke="#0066FF" stroke-width="5" points="291.601,324.031 298,133.521 304.398,324.031 "/>
<g class="biggest-cog">
	<g>
		<path fill="#0066FF" d="M1118.292,83.433c0,2.052-1.663,3.714-3.713,3.714l0,0c-2.052,0-3.715-1.662-3.715-3.714V5.266
			c0-2.051,1.663-3.714,3.715-3.714l0,0c2.05,0,3.713,1.663,3.713,3.714V83.433z"/>
		<path fill="#0066FF" d="M1075.495,48.063c-2.051,0-3.714-1.663-3.714-3.713l0,0c0-2.051,1.663-3.714,3.714-3.714h78.166
			c2.052,0,3.714,1.663,3.714,3.714l0,0c0,2.051-1.662,3.713-3.714,3.713H1075.495z"/>
	</g>
	<g>
		<path fill="#0066FF" d="M1089.568,74.611c-1.45,1.451-3.802,1.451-5.252,0l0,0c-1.45-1.45-1.45-3.801,0-5.251l55.271-55.272
			c1.45-1.45,3.803-1.45,5.253,0l0,0c1.45,1.45,1.45,3.802,0,5.252L1089.568,74.611z"/>
		<path fill="#0066FF" d="M1084.316,19.339c-1.45-1.45-1.45-3.802,0-5.252l0,0c1.45-1.45,3.802-1.45,5.252,0l55.272,55.272
			c1.45,1.45,1.45,3.802,0,5.251l0,0c-1.45,1.451-3.803,1.451-5.253,0L1084.316,19.339z"/>
	</g>
	<g>
		<path fill="#0066FF" d="M1079.536,62.051c-1.91,0.748-4.064-0.195-4.813-2.105l0,0c-0.747-1.91,0.196-4.064,2.105-4.812
			l72.792-28.485c1.91-0.748,4.063,0.195,4.811,2.105l0,0c0.748,1.91-0.194,4.064-2.104,4.812L1079.536,62.051z"/>
		<path fill="#0066FF" d="M1096.877,9.307c-0.748-1.91,0.195-4.064,2.105-4.812l0,0c1.91-0.747,4.064,0.195,4.812,2.105
			l28.485,72.792c0.748,1.91-0.195,4.064-2.104,4.812l0,0c-1.91,0.747-4.064-0.195-4.813-2.105L1096.877,9.307z"/>
	</g>
	<g>
		<path fill="#0066FF" d="M1077.283,32.087c-1.88-0.822-2.736-3.012-1.914-4.891l0,0c0.822-1.879,3.013-2.736,4.892-1.914
			l71.612,31.329c1.879,0.822,2.736,3.012,1.914,4.891l0,0c-0.821,1.879-3.011,2.736-4.892,1.914L1077.283,32.087z"/>
		<path fill="#0066FF" d="M1126.841,7.054c0.821-1.879,3.012-2.736,4.891-1.914l0,0c1.88,0.822,2.736,3.012,1.914,4.891
			l-31.329,71.614c-0.822,1.879-3.012,2.736-4.891,1.914l0,0c-1.879-0.822-2.736-3.012-1.914-4.891L1126.841,7.054z"/>
	</g>
	<circle fill="#FFFFFF" stroke="#0066FF" stroke-width="0.9646" cx="1114.578" cy="44.35" r="31.832"/>
	<circle fill="#0066FF" cx="1114.579" cy="44.35" r="23.343"/>
	<circle fill="none" stroke="#0066FF" stroke-width="7.0739" cx="1114.578" cy="44.35" r="31.831"/>
</g>
<g class="biggest-cog">
	<g>
		<path fill="#0066FF" d="M1038.438,223.063c0,3.169-2.569,5.739-5.738,5.739l0,0c-3.171,0-5.74-2.57-5.74-5.739V102.259
			c0-3.169,2.569-5.74,5.74-5.74l0,0c3.169,0,5.738,2.57,5.738,5.74V223.063z"/>
		<path fill="#0066FF" d="M972.296,168.401c-3.17,0-5.739-2.57-5.739-5.74l0,0c0-3.17,2.569-5.74,5.739-5.74h120.803
			c3.172,0,5.74,2.57,5.74,5.74l0,0c0,3.169-2.568,5.74-5.74,5.74H972.296z"/>
	</g>
	<g>
		<path fill="#0066FF" d="M994.046,209.43c-2.241,2.242-5.875,2.242-8.117,0l0,0c-2.241-2.241-2.241-5.875,0-8.116l85.421-85.421
			c2.241-2.242,5.876-2.242,8.118,0l0,0c2.239,2.241,2.239,5.875,0,8.116L994.046,209.43z"/>
		<path fill="#0066FF" d="M985.929,124.009c-2.241-2.242-2.241-5.875,0-8.116l0,0c2.242-2.242,5.876-2.242,8.117,0l85.422,85.421
			c2.239,2.241,2.239,5.875,0,8.116l0,0c-2.242,2.242-5.877,2.242-8.118,0L985.929,124.009z"/>
	</g>
	<g>
		<path fill="#0066FF" d="M978.542,190.017c-2.951,1.156-6.282-0.301-7.438-3.253l0,0c-1.155-2.951,0.303-6.281,3.253-7.437
			l112.498-44.022c2.95-1.155,6.279,0.301,7.435,3.253l0,0c1.155,2.952-0.302,6.281-3.252,7.437L978.542,190.017z"/>
		<path fill="#0066FF" d="M1005.341,108.504c-1.154-2.952,0.303-6.281,3.254-7.437l0,0c2.951-1.154,6.281,0.302,7.437,3.254
			l44.023,112.497c1.154,2.952-0.302,6.281-3.254,7.436l0,0c-2.951,1.155-6.28-0.301-7.436-3.253L1005.341,108.504z"/>
	</g>
	<g>
		<path fill="#0066FF" d="M975.061,143.71c-2.905-1.271-4.229-4.654-2.958-7.559l0,0c1.271-2.904,4.655-4.228,7.558-2.958
			l110.676,48.417c2.904,1.271,4.228,4.655,2.957,7.56l0,0c-1.269,2.903-4.653,4.228-7.559,2.958L975.061,143.71z"/>
		<path fill="#0066FF" d="M1051.648,105.022c1.27-2.904,4.654-4.228,7.559-2.958l0,0c2.904,1.271,4.229,4.655,2.959,7.559
			L1013.748,220.3c-1.271,2.904-4.654,4.229-7.56,2.958l0,0c-2.903-1.271-4.229-4.655-2.958-7.559L1051.648,105.022z"/>
	</g>
	<circle fill="#FFFFFF" stroke="#0066FF" stroke-width="1.4908" cx="1032.698" cy="162.661" r="49.195"/>
	<circle fill="#0066FF" cx="1032.698" cy="162.661" r="36.076"/>
	<circle fill="none" stroke="#0066FF" stroke-width="10.9324" cx="1032.697" cy="162.661" r="49.193"/>
</g>
<g class="biggest-cog">
	<g>
		<path fill="#0066FF" d="M1052.231,86.182c0,1.119-0.907,2.025-2.025,2.025l0,0c-1.119,0-2.026-0.907-2.026-2.025V43.545
			c0-1.118,0.907-2.025,2.026-2.025l0,0c1.118,0,2.025,0.907,2.025,2.025V86.182z"/>
		<path fill="#0066FF" d="M1028.887,66.89c-1.118,0-2.025-0.907-2.025-2.026l0,0c0-1.119,0.907-2.026,2.025-2.026h42.637
			c1.119,0,2.025,0.907,2.025,2.026l0,0c0,1.119-0.906,2.026-2.025,2.026H1028.887z"/>
	</g>
	<g>
		<path fill="#0066FF" d="M1036.563,81.371c-0.791,0.791-2.073,0.791-2.865,0l0,0c-0.791-0.791-0.791-2.074,0-2.865l30.149-30.149
			c0.791-0.791,2.073-0.791,2.865,0l0,0c0.79,0.792,0.79,2.074,0,2.865L1036.563,81.371z"/>
		<path fill="#0066FF" d="M1033.698,51.222c-0.791-0.792-0.791-2.074,0-2.865l0,0c0.792-0.791,2.074-0.791,2.865,0l30.149,30.149
			c0.79,0.791,0.79,2.074,0,2.865l0,0c-0.792,0.791-2.074,0.791-2.865,0L1033.698,51.222z"/>
	</g>
	<g>
		<path fill="#0066FF" d="M1031.092,74.519c-1.042,0.408-2.217-0.106-2.625-1.148l0,0c-0.408-1.042,0.106-2.216,1.148-2.624
			l39.704-15.538c1.042-0.408,2.216,0.106,2.625,1.148l0,0c0.407,1.042-0.106,2.217-1.148,2.625L1031.092,74.519z"/>
		<path fill="#0066FF" d="M1040.55,45.75c-0.407-1.042,0.106-2.216,1.148-2.624l0,0c1.042-0.408,2.218,0.106,2.625,1.148
			l15.537,39.705c0.408,1.042-0.106,2.217-1.147,2.625l0,0c-1.042,0.408-2.218-0.107-2.625-1.149L1040.55,45.75z"/>
	</g>
	<g>
		<path fill="#0066FF" d="M1029.862,58.176c-1.024-0.449-1.491-1.643-1.044-2.668l0,0c0.448-1.025,1.644-1.493,2.668-1.044
			l39.062,17.089c1.025,0.448,1.492,1.643,1.044,2.668l0,0c-0.447,1.024-1.643,1.492-2.668,1.044L1029.862,58.176z"/>
		<path fill="#0066FF" d="M1056.895,44.521c0.447-1.024,1.643-1.492,2.667-1.043l0,0c1.025,0.448,1.493,1.643,1.044,2.668
			l-17.088,39.062c-0.449,1.025-1.643,1.493-2.669,1.043l0,0c-1.024-0.448-1.492-1.643-1.043-2.667L1056.895,44.521z"/>
	</g>
	<circle fill="#FFFFFF" stroke="#0066FF" stroke-width="0.5262" cx="1050.206" cy="64.864" r="17.363"/>
	<circle fill="#0066FF" cx="1050.205" cy="64.864" r="12.732"/>
	<circle fill="none" stroke="#0066FF" stroke-width="3.8585" cx="1050.205" cy="64.864" r="17.362"/>
</g>
<g class="biggest-cog">
	<g>
		<path fill="#0066FF" d="M1144.111,177.87c0,2.051-1.662,3.714-3.713,3.714l0,0c-2.051,0-3.714-1.663-3.714-3.714V99.703
			c0-2.051,1.663-3.714,3.714-3.714l0,0c2.051,0,3.713,1.663,3.713,3.714V177.87z"/>
		<path fill="#0066FF" d="M1101.314,142.5c-2.051,0-3.713-1.663-3.713-3.713l0,0c0-2.051,1.662-3.714,3.713-3.714h78.166
			c2.052,0,3.715,1.663,3.715,3.714l0,0c0,2.051-1.663,3.713-3.715,3.713H1101.314z"/>
	</g>
	<g>
		<path fill="#0066FF" d="M1115.389,169.048c-1.45,1.451-3.803,1.451-5.253,0l0,0c-1.45-1.45-1.45-3.801,0-5.252l55.272-55.272
			c1.45-1.45,3.802-1.45,5.253,0l0,0c1.449,1.45,1.449,3.801,0,5.252L1115.389,169.048z"/>
		<path fill="#0066FF" d="M1110.136,113.776c-1.45-1.451-1.45-3.802,0-5.252l0,0c1.45-1.45,3.803-1.45,5.253,0l55.272,55.272
			c1.449,1.451,1.449,3.802,0,5.252l0,0c-1.451,1.451-3.803,1.451-5.253,0L1110.136,113.776z"/>
	</g>
	<g>
		<path fill="#0066FF" d="M1105.355,156.488c-1.91,0.748-4.064-0.195-4.813-2.105l0,0c-0.746-1.91,0.196-4.064,2.105-4.812
			l72.793-28.485c1.909-0.748,4.063,0.195,4.811,2.105l0,0c0.748,1.91-0.195,4.064-2.104,4.812L1105.355,156.488z"/>
		<path fill="#0066FF" d="M1122.697,103.744c-0.748-1.91,0.195-4.064,2.104-4.812l0,0c1.91-0.747,4.064,0.195,4.813,2.105
			l28.485,72.792c0.747,1.91-0.195,4.064-2.105,4.812l0,0c-1.91,0.747-4.064-0.195-4.813-2.105L1122.697,103.744z"/>
	</g>
	<g>
		<path fill="#0066FF" d="M1103.104,126.524c-1.88-0.822-2.736-3.012-1.914-4.891l0,0c0.821-1.879,3.012-2.736,4.891-1.914
			l71.613,31.329c1.879,0.822,2.735,3.012,1.913,4.892l0,0c-0.82,1.878-3.011,2.735-4.891,1.914L1103.104,126.524z"/>
		<path fill="#0066FF" d="M1152.66,101.491c0.822-1.879,3.012-2.736,4.892-1.914l0,0c1.879,0.822,2.736,3.012,1.913,4.891
			l-31.329,71.614c-0.821,1.879-3.012,2.736-4.891,1.914l0,0c-1.879-0.822-2.735-3.012-1.914-4.89L1152.66,101.491z"/>
	</g>
	<circle fill="#FFFFFF" stroke="#0066FF" stroke-width="0.9646" cx="1140.398" cy="138.787" r="31.833"/>
	<circle fill="#0066FF" cx="1140.398" cy="138.787" r="23.344"/>
	<circle fill="none" stroke="#0066FF" stroke-width="7.0739" cx="1140.397" cy="138.787" r="31.831"/>
</g>
<path fill="#FFFFFF" stroke="#0066FF" stroke-width="9" d="M1178.5,607.552c0,6.627-5.373,12-12,12h-492c-6.627,0-12-5.373-12-12
	v-196c0-6.627,5.373-12,12-12h492c6.627,0,12,5.373,12,12V607.552z"/>
<path fill="#0066FF" d="M890.5,606.552c0,6.627-5.373,12-12,12h-202c-6.627,0-12-5.373-12-12v-194c0-6.627,5.373-12,12-12h202
	c6.627,0,12,5.373,12,12V606.552z"/>
<g>
	<g>
		<path fill="#FFFFFF" d="M790.192,596.765c0,4.578-3.71,8.287-8.287,8.287l0,0c-4.577,0-8.287-3.709-8.287-8.287V422.339
			c0-4.575,3.71-8.287,8.287-8.287l0,0c4.577,0,8.287,3.712,8.287,8.287V596.765z"/>
		<path fill="#FFFFFF" d="M694.692,517.839c-4.577,0-8.287-3.709-8.287-8.287l0,0c0-4.575,3.71-8.287,8.287-8.287h174.424
			c4.579,0,8.287,3.712,8.287,8.287l0,0c0,4.578-3.708,8.287-8.287,8.287H694.692z"/>
	</g>
	<g>
		<path fill="#FFFFFF" d="M726.097,577.082c-3.236,3.235-8.483,3.235-11.721,0l0,0c-3.235-3.235-3.235-8.483,0-11.721
			l123.337-123.336c3.237-3.237,8.484-3.237,11.722,0l0,0c3.234,3.235,3.234,8.482,0,11.719L726.097,577.082z"/>
		<path fill="#FFFFFF" d="M714.376,453.744c-3.235-3.236-3.235-8.483,0-11.719l0,0c3.237-3.237,8.484-3.237,11.721,0
			l123.338,123.336c3.234,3.237,3.234,8.485,0,11.721l0,0c-3.237,3.235-8.484,3.235-11.722,0L714.376,453.744z"/>
	</g>
	<g>
		<path fill="#FFFFFF" d="M703.71,549.052c-4.262,1.668-9.07-0.435-10.738-4.697l0,0c-1.667-4.262,0.437-9.068,4.697-10.736
			l162.433-63.564c4.261-1.67,9.067,0.435,10.735,4.697l0,0c1.668,4.261-0.435,9.068-4.695,10.737L703.71,549.052z"/>
		<path fill="#FFFFFF" d="M742.405,431.357c-1.668-4.262,0.437-9.07,4.697-10.738l0,0c4.263-1.666,9.07,0.437,10.738,4.699
			l63.564,162.431c1.668,4.263-0.437,9.069-4.697,10.737l0,0c-4.263,1.668-9.07-0.436-10.738-4.697L742.405,431.357z"/>
	</g>
	<g>
		<path fill="#FFFFFF" d="M698.684,482.19c-4.194-1.834-6.106-6.721-4.271-10.913l0,0c1.834-4.193,6.721-6.104,10.914-4.271
			l159.801,69.908c4.193,1.834,6.104,6.721,4.271,10.915l0,0c-1.832,4.191-6.718,6.104-10.914,4.271L698.684,482.19z"/>
		<path fill="#FFFFFF" d="M809.268,426.329c1.834-4.192,6.721-6.104,10.914-4.27l0,0c4.192,1.834,6.105,6.721,4.271,10.914
			l-69.91,159.803c-1.834,4.192-6.721,6.105-10.913,4.271l0,0c-4.193-1.836-6.106-6.723-4.272-10.914L809.268,426.329z"/>
	</g>
	<circle fill="#0066FF" stroke="#FFFFFF" stroke-width="2.1525" cx="781.905" cy="509.552" r="71.031"/>
	<circle fill="#FFFFFF" cx="781.905" cy="509.552" r="52.089"/>
	<circle fill="none" stroke="#FFFFFF" stroke-width="15.7851" cx="781.904" cy="509.552" r="71.029"/>
</g>
<path fill="#0066FF" d="M1064.5,611.552c0,6.627-5.373,12-12,12h-54c-6.627,0-12-5.373-12-12v-204c0-6.627,5.373-12,12-12h54
	c6.627,0,12,5.373,12,12V611.552z"/>
<path fill="#0066FF" d="M1000.5,557.552c0,6.627-5.373,12-12,12h-106c-6.627,0-12-5.373-12-12v-2c0-6.627,5.373-12,12-12h106
	c6.627,0,12,5.373,12,12V557.552z"/>
<g>
	<path fill="#0066FF" d="M1168.5,606.552c0,6.627-5.373,12-12,12h-44c-6.627,0-12-5.373-12-12v-194c0-6.627,5.373-12,12-12h44
		c6.627,0,12,5.373,12,12V606.552z"/>
	<path fill="#0066FF" d="M1176.5,509.552c0,6.627-5.373,12-12,12h-106c-6.627,0-12-5.373-12-12v-2c0-6.627,5.373-12,12-12h106
		c6.627,0,12,5.373,12,12V509.552z"/>
</g>
<circle fill="#FFFFFF" stroke="#0066FF" stroke-width="6" cx="785.904" cy="560.552" r="17"/>
<g>
	<g>
		<path fill="#FFFFFF" d="M1026.985,541.971c0,1.702-1.379,3.08-3.081,3.08l0,0c-1.701,0-3.08-1.378-3.08-3.08v-64.838
			c0-1.7,1.379-3.08,3.08-3.08l0,0c1.702,0,3.081,1.38,3.081,3.08V541.971z"/>
		<path fill="#FFFFFF" d="M991.485,512.632c-1.701,0-3.08-1.378-3.08-3.08l0,0c0-1.701,1.379-3.08,3.08-3.08h64.838
			c1.702,0,3.08,1.379,3.08,3.08l0,0c0,1.702-1.378,3.08-3.08,3.08H991.485z"/>
	</g>
	<g>
		<path fill="#FFFFFF" d="M1003.159,534.655c-1.203,1.202-3.153,1.202-4.356,0l0,0c-1.203-1.203-1.203-3.154,0-4.357l45.847-45.847
			c1.203-1.203,3.154-1.203,4.357,0l0,0c1.202,1.203,1.202,3.153,0,4.356L1003.159,534.655z"/>
		<path fill="#FFFFFF" d="M998.803,488.807c-1.203-1.203-1.203-3.153,0-4.356l0,0c1.203-1.203,3.153-1.203,4.356,0l45.848,45.847
			c1.202,1.203,1.202,3.154,0,4.357l0,0c-1.203,1.202-3.154,1.202-4.357,0L998.803,488.807z"/>
	</g>
	<g>
		<path fill="#FFFFFF" d="M994.838,524.235c-1.584,0.62-3.372-0.161-3.992-1.746l0,0c-0.619-1.584,0.163-3.37,1.746-3.99
			l60.38-23.629c1.584-0.62,3.371,0.162,3.991,1.746l0,0c0.619,1.584-0.162,3.371-1.746,3.991L994.838,524.235z"/>
		<path fill="#FFFFFF" d="M1009.222,480.486c-0.62-1.585,0.162-3.372,1.746-3.992l0,0c1.585-0.619,3.372,0.162,3.991,1.747
			l23.629,60.379c0.62,1.584-0.162,3.371-1.746,3.991l0,0c-1.585,0.62-3.372-0.162-3.992-1.746L1009.222,480.486z"/>
	</g>
	<g>
		<path fill="#FFFFFF" d="M992.97,499.381c-1.56-0.682-2.271-2.498-1.588-4.057l0,0c0.682-1.559,2.498-2.27,4.057-1.588
			l59.401,25.986c1.559,0.682,2.27,2.498,1.588,4.058l0,0c-0.682,1.558-2.498,2.27-4.058,1.588L992.97,499.381z"/>
		<path fill="#FFFFFF" d="M1034.076,478.617c0.682-1.559,2.498-2.27,4.057-1.588l0,0c1.559,0.682,2.27,2.499,1.588,4.058
			l-25.987,59.401c-0.682,1.559-2.498,2.27-4.057,1.588l0,0c-1.559-0.682-2.27-2.499-1.588-4.057L1034.076,478.617z"/>
	</g>
	<circle fill="#0066FF" stroke="#FFFFFF" stroke-width="0.8001" cx="1023.905" cy="509.552" r="26.404"/>
	<circle fill="#FFFFFF" cx="1023.905" cy="509.552" r="19.363"/>
	<circle fill="none" stroke="#FFFFFF" stroke-width="5.8677" cx="1023.904" cy="509.552" r="26.403"/>
</g>
<line fill="none" stroke="#0066FF" stroke-width="3.0974" x1="598.5" y1="298.552" x2="1182.5" y2="298.552"/>
<circle fill="#0066FF" cx="596.549" cy="299.503" r="18.902"/>
<circle fill="#0066FF" cx="298" cy="325.052" r="17"/>
<g>
	<g>
		<g>
			<g>
				<path fill="#0066FF" d="M820.363,94.89c0,0-9.406,1.243-21.523,2.914c-0.688-1.028-1.72-1.696-2.89-1.696
					c-1.474,0-2.735,1.048-3.351,2.562c-0.426,0.06-0.855,0.119-1.285,0.18c-0.688-0.979-1.714-1.614-2.876-1.614
					c-1.482,0-2.751,1.021-3.362,2.493c-0.348,0.049-0.696,0.099-1.046,0.148c-0.676-1.141-1.813-1.89-3.104-1.89
					c-1.621,0-2.989,1.186-3.516,2.84c-0.373,0.054-0.743,0.108-1.114,0.162c-0.688-0.908-1.717-1.5-2.883-1.5
					c-1.528,0-2.838,1-3.424,2.428c-0.315,0.047-0.63,0.094-0.941,0.14c-0.67-1.092-1.826-1.817-3.146-1.817
					c-1.699,0-3.117,1.204-3.581,2.844c-9.034,1.41-15.618,2.584-16.172,3.089c-9.167,8.339-9.167,35.757,0,40.591
					c1.106,0.584,7.477,1.734,16.058,3.084c0.287,1.896,1.825,3.349,3.695,3.349c1.492,0,2.769-0.929,3.375-2.264
					c0.185,0.028,0.367,0.055,0.553,0.083c0.463,1.691,1.883,2.932,3.584,2.932c1.346,0,2.516-0.777,3.179-1.935
					c0.228,0.033,0.456,0.066,0.684,0.099c0.388,1.911,1.87,3.338,3.65,3.338c1.449,0,2.692-0.955,3.319-2.338
					c0.219,0.031,0.438,0.062,0.656,0.093c0.508,1.739,1.89,2.996,3.536,2.996c1.331,0,2.493-0.822,3.16-2.055
					c0.276,0.039,0.551,0.077,0.826,0.115c0.518,1.784,1.893,3.067,3.525,3.067c1.334,0,2.498-0.857,3.165-2.143
					c11.985,1.645,21.248,2.858,21.248,2.858l12.617-11.281v-40.591L820.363,94.89z"/>
			</g>
		</g>
		<circle fill="#FFFFFF" stroke="#0066FF" stroke-width="4.5071" cx="854.917" cy="126.469" r="57.841"/>
		<g>
			<path fill="none" stroke="#0066FF" stroke-width="3.0047" d="M799.894,116.575c25.202,0,45.634-8.407,45.634-18.774"/>
			<path fill="none" stroke="#0066FF" stroke-width="3.0047" d="M798.673,137.801c24.199,0,43.817,8.072,43.817,18.025"/>
			<g>
				<g>
					<path fill="none" d="M845.152,97.986c-7.137,2.629-1.127,15.399,0.375,10.141c-7.512-2.629-6.385,13.897,0,9.766
						c-9.014-7.512-12.395,14.648,0.376,10.892c-3.381-2.629-10.517-2.629-10.517,3.004c0.375,4.883,7.887,10.141,12.019,8.639
						c-1.127-4.507-8.639-1.502-8.263,2.629c0.375,3.756,6.761,5.634,9.766,6.01c-7.888-4.507-8.264,10.141-2.63,6.76
						c-0.751-1.126-1.502-0.375-2.253-0.751"/>
					<path fill="#0066FF" d="M843.856,96.236c-4.814,2.257-6.11,7.231-4.129,11.999c1.628,3.917,6.932,4.581,8.58,0.244
						c0.37-0.973-0.036-2.044-1.112-2.337c-13.71-3.733-11.611,19.688-0.372,13.5c1.257-0.692,2.44-2.298,0.936-3.446
						c-5.325-4.062-11.563-1.271-13.021,5.002c-1.773,7.636,5.223,11.244,11.71,9.615c1.438-0.361,3.598-2.443,1.688-3.725
						c-4.313-2.894-14.901-3.51-15.586,3.789c-0.708,7.552,8.686,13.17,15.4,11.58c1.041-0.247,2.885-1.463,2.358-2.807
						c-2.223-5.677-10.627-4.036-13.241,0.616c-3.796,6.754,5.836,10.174,10.847,10.945c2.343,0.36,5.786-2.581,2.663-4.129
						c-4.7-2.33-9.675-0.302-10.943,4.833c-1.297,5.252,3.657,7.791,7.941,5.663c1.345-0.668,2.355-2.289,0.936-3.446
						c-1.195-0.974-2.018-0.982-3.489-1.2c-2.901-0.43-5.894,3.711-1.99,4.289c0.402-0.058,0.741,0.043,1.017,0.302
						c0.312-1.148,0.624-2.297,0.936-3.446c0.866,0.432,1.094,0.398,0.686-0.103c-0.269-0.58-0.264-1.22-0.239-1.839
						c0.074-1.858,0.449-1.759,1.812-1.083c0.888-1.376,1.775-2.753,2.663-4.129c-1.972-0.303-3.848-0.864-5.609-1.817
						c-0.732-0.402-1.351-0.94-1.853-1.614c-1.475-1.788,1.434-3.889,2.062-2.285c0.786-0.936,1.572-1.872,2.358-2.807
						c-2.995,0.71-6.21-2.68-7.7-4.778c-2.893-4.074,1.75-4.993,4.511-3.14c0.563-1.242,1.125-2.483,1.688-3.725
						c-3.057,0.768-4.765-1.066-4.908-4.077c-0.061-1.277,0.257-2.489,0.813-3.624c0.509-1.036,0.629-0.536,2.031,0.534
						c0.312-1.149,0.624-2.297,0.936-3.446c-1.104,0.608-1.104-6.23-0.372-6.031c-0.371-0.779-0.741-1.559-1.112-2.337
						c2.938,0.542,3.891,0.209,2.856-0.998c-0.448-0.668-0.609-1.577-0.79-2.343c-0.415-1.76-0.148-3.862,1.635-4.697
						C850.043,98.051,846.841,94.837,843.856,96.236L843.856,96.236z"/>
				</g>
			</g>
		</g>
	</g>
	<line fill="none" stroke="#0066FF" stroke-width="4.5071" x1="765.902" y1="126.718" x2="510.503" y2="126.718"/>
	<circle fill="#0066FF" cx="510.503" cy="126.718" r="28.398"/>
</g>
<circle fill="#0066FF" cx="1163.549" cy="298.503" r="18.902"/>
</svg>
