<?xml version="1.0" encoding="utf-8"?>
<!-- Generator: Adobe Illustrator 13.0.0, SVG Export Plug-In . SVG Version: 6.00 Build 14948)  -->
<!DOCTYPE svg PUBLIC "-//W3C//DTD SVG 1.1//EN" "http://www.w3.org/Graphics/SVG/1.1/DTD/svg11.dtd">
<svg version="1.1" id="Layer_1" xmlns="http://www.w3.org/2000/svg" xmlns:xlink="http://www.w3.org/1999/xlink" x="0px" y="0px"
	 width="60px" height="60px" viewBox="0 0 60 60" enable-background="new 0 0 60 60" xml:space="preserve">
<g>
	<circle fill="#0066FF" stroke="#FFFFFF" cx="21.615" cy="51.631" r="8.368"/>
	<circle fill="#0066FF" stroke="#FFFFFF" cx="12.365" cy="22.25" r="8.368"/>
	<circle fill="#0066FF" stroke="#FFFFFF" cx="30.115" cy="22.25" r="8.368"/>
	<g>
		<path fill="#0066FF" stroke="#FFFFFF" stroke-width="0.5031" d="M21.68,53.371c-1.02,0.053-1.889-0.731-1.941-1.752l-1.066-20.801
			c-0.053-1.021,0.731-1.889,1.752-1.941l0,0c1.02-0.052,1.889,0.731,1.939,1.753l1.068,20.8
			C23.483,52.45,22.699,53.318,21.68,53.371L21.68,53.371z"/>
		<path fill="#0066FF" stroke="#FFFFFF" stroke-width="0.5031" d="M21.711,53.963c-1.428,0.072-2.645-1.025-2.717-2.453l0,0
			c-0.074-1.429,1.023-2.644,2.451-2.718l0,0c1.428-0.073,2.645,1.024,2.718,2.452l0,0C24.236,52.672,23.139,53.889,21.711,53.963
			L21.711,53.963z"/>
	</g>
	<path fill="#0066FF" stroke="#FFFFFF" d="M36.83,18.986c2.364,0,4.28,4.259,4.28,9.515l0,0c0,5.253-6.916,12.512-9.28,12.512
		H10.279C7.917,41.014,0,33.755,0,28.501l0,0c0-5.256,1.917-9.515,4.279-9.515H36.83z"/>
	<g>
		<g>
			<path fill="#0066FF" stroke="#FFFFFF" d="M58.394,19.664c0.272,0.983-0.305,2.002-1.29,2.274L18.6,32.577
				c-0.984,0.271-2.002-0.307-2.274-1.291l0,0c-0.272-0.982,0.305-2.001,1.289-2.272l38.504-10.639
				C57.104,18.103,58.122,18.68,58.394,19.664L58.394,19.664z"/>
			<path fill="#0066FF" stroke="#FFFFFF" d="M20.654,30.092c0.381,1.378-0.427,2.804-1.805,3.184l0,0
				c-1.379,0.382-2.804-0.427-3.185-1.806l0,0c-0.381-1.377,0.427-2.804,1.806-3.185l0,0C18.848,27.904,20.273,28.714,20.654,30.092
				L20.654,30.092z"/>
		</g>
		<path fill="#0066FF" stroke="#FFFFFF" d="M58.964,19.506c0.381,1.378-0.427,2.804-1.806,3.185l0,0
			c-1.379,0.381-2.803-0.428-3.184-1.806l0,0c-0.381-1.378,0.426-2.804,1.805-3.185l0,0C57.158,17.32,58.583,18.128,58.964,19.506
			L58.964,19.506z"/>
	</g>
	<ellipse fill="#0066FF" stroke="#FFFFFF" cx="50.821" cy="20.5" rx="7.929" ry="20.5"/>
	<ellipse fill="#0066FF" stroke="#FFFFFF" stroke-width="1.0968" cx="54" cy="20.75" rx="4.75" ry="17"/>
	<ellipse fill="#0066FF" cx="58" cy="20.5" rx="2" ry="5.5"/>
</g>
</svg>
