<?xml version="1.0" encoding="utf-8"?>
<!-- Generator: Adobe Illustrator 13.0.0, SVG Export Plug-In . SVG Version: 6.00 Build 14948)  -->
<!DOCTYPE svg PUBLIC "-//W3C//DTD SVG 1.1//EN" "http://www.w3.org/Graphics/SVG/1.1/DTD/svg11.dtd">
<svg version="1.1" id="Layer_1" xmlns="http://www.w3.org/2000/svg" xmlns:xlink="http://www.w3.org/1999/xlink" x="0px" y="0px"
	 width="60px" height="60px" viewBox="0 0 60 60" enable-background="new 0 0 60 60" xml:space="preserve">
<g>
	<circle fill="#0066FF" stroke="#FFFFFF" cx="38.385" cy="51.631" r="8.368"/>
	<circle fill="#0066FF" stroke="#FFFFFF" cx="47.635" cy="22.25" r="8.368"/>
	<circle fill="#0066FF" stroke="#FFFFFF" cx="29.885" cy="22.25" r="8.368"/>
	<g>
		<path fill="#0066FF" stroke="#FFFFFF" stroke-width="0.5031" d="M38.32,53.371c1.02,0.053,1.889-0.731,1.941-1.752l1.066-20.801
			c0.053-1.021-0.731-1.889-1.752-1.941l0,0c-1.02-0.052-1.889,0.731-1.939,1.753l-1.068,20.8
			C36.517,52.45,37.301,53.318,38.32,53.371L38.32,53.371z"/>
		<path fill="#0066FF" stroke="#FFFFFF" stroke-width="0.5031" d="M38.289,53.963c1.428,0.072,2.645-1.025,2.717-2.453l0,0
			c0.074-1.429-1.023-2.644-2.451-2.718l0,0c-1.428-0.073-2.645,1.024-2.718,2.452l0,0C35.764,52.672,36.861,53.889,38.289,53.963
			L38.289,53.963z"/>
	</g>
	<path fill="#0066FF" stroke="#FFFFFF" d="M23.17,18.986c-2.364,0-4.28,4.259-4.28,9.515l0,0c0,5.253,6.916,12.512,9.28,12.512
		h21.551C52.083,41.014,60,33.755,60,28.501l0,0c0-5.256-1.917-9.515-4.279-9.515H23.17z"/>
	<g>
		<g>
			<path fill="#0066FF" stroke="#FFFFFF" d="M1.606,19.664c-0.272,0.983,0.305,2.002,1.29,2.274l38.503,10.639
				c0.984,0.271,2.003-0.307,2.274-1.291l0,0c0.271-0.982-0.305-2.001-1.289-2.272L3.881,18.375
				C2.896,18.103,1.878,18.68,1.606,19.664L1.606,19.664z"/>
			<path fill="#0066FF" stroke="#FFFFFF" d="M39.346,30.092c-0.381,1.378,0.427,2.804,1.805,3.184l0,0
				c1.379,0.382,2.805-0.427,3.186-1.806l0,0c0.381-1.377-0.428-2.804-1.807-3.185l0,0C41.151,27.904,39.727,28.714,39.346,30.092
				L39.346,30.092z"/>
		</g>
		<path fill="#0066FF" stroke="#FFFFFF" d="M1.036,19.506c-0.381,1.378,0.427,2.804,1.806,3.185l0,0
			c1.379,0.381,2.803-0.428,3.184-1.806l0,0c0.381-1.378-0.426-2.804-1.805-3.185l0,0C2.842,17.32,1.417,18.128,1.036,19.506
			L1.036,19.506z"/>
	</g>
	<ellipse fill="#0066FF" stroke="#FFFFFF" cx="9.179" cy="20.5" rx="7.929" ry="20.5"/>
	<ellipse fill="#0066FF" stroke="#FFFFFF" stroke-width="1.0968" cx="6" cy="20.75" rx="4.75" ry="17"/>
	<ellipse fill="#0066FF" cx="2" cy="20.5" rx="2" ry="5.5"/>
</g>
</svg>
