<?xml version="1.0" encoding="utf-8"?>
<!-- Generator: Adobe Illustrator 13.0.0, SVG Export Plug-In . SVG Version: 6.00 Build 14948)  -->
<!DOCTYPE svg PUBLIC "-//W3C//DTD SVG 1.1//EN" "http://www.w3.org/Graphics/SVG/1.1/DTD/svg11.dtd">
<svg version="1.1" id="Layer_1" xmlns="http://www.w3.org/2000/svg" xmlns:xlink="http://www.w3.org/1999/xlink" x="0px" y="0px"
	 width="156.453px" height="6px" viewBox="0 0 156.453 6" enable-background="new 0 0 156.453 6" xml:space="preserve">
<g>
	<line fill="none" stroke="#0066FF" stroke-width="2" x1="0.309" y1="1" x2="156.309" y2="1"/>
	<line fill="none" stroke="#0066FF" stroke-width="2" x1="0.309" y1="5" x2="156.309" y2="5"/>
</g>
<g>
	<g>
		<polyline fill="none" stroke="#0066FF" stroke-width="0.6422" points="0.227,0.729 4.034,4.521 7.841,0.729 		"/>
		<polyline fill="none" stroke="#0066FF" stroke-width="0.6422" points="12.237,5.271 8.43,1.478 4.623,5.271 		"/>
	</g>
	<g>
		<polyline fill="none" stroke="#0066FF" stroke-width="0.6422" points="135.217,0.729 139.024,4.521 142.832,0.729 		"/>
		<polyline fill="none" stroke="#0066FF" stroke-width="0.6422" points="147.227,5.271 143.42,1.478 139.612,5.271 		"/>
	</g>
	<g>
		<polyline fill="none" stroke="#0066FF" stroke-width="0.6422" points="126.217,0.729 130.024,4.521 133.832,0.729 		"/>
		<polyline fill="none" stroke="#0066FF" stroke-width="0.6422" points="138.228,5.271 134.421,1.478 130.613,5.271 		"/>
	</g>
	<g>
		<polyline fill="none" stroke="#0066FF" stroke-width="0.6422" points="117.218,0.729 121.025,4.521 124.833,0.729 		"/>
		<polyline fill="none" stroke="#0066FF" stroke-width="0.6422" points="129.229,5.271 125.421,1.478 121.614,5.271 		"/>
	</g>
	<g>
		<polyline fill="none" stroke="#0066FF" stroke-width="0.6422" points="108.219,0.729 112.026,4.521 115.833,0.729 		"/>
		<polyline fill="none" stroke="#0066FF" stroke-width="0.6422" points="120.229,5.271 116.422,1.478 112.614,5.271 		"/>
	</g>
	<g>
		<polyline fill="none" stroke="#0066FF" stroke-width="0.6422" points="99.219,0.729 103.026,4.521 106.834,0.729 		"/>
		<polyline fill="none" stroke="#0066FF" stroke-width="0.6422" points="111.23,5.271 107.423,1.478 103.615,5.271 		"/>
	</g>
	<g>
		<polyline fill="none" stroke="#0066FF" stroke-width="0.6422" points="90.22,0.729 94.027,4.521 97.835,0.729 		"/>
		<polyline fill="none" stroke="#0066FF" stroke-width="0.6422" points="102.23,5.271 98.423,1.478 94.616,5.271 		"/>
	</g>
	<g>
		<polyline fill="none" stroke="#0066FF" stroke-width="0.6422" points="81.221,0.729 85.028,4.521 88.835,0.729 		"/>
		<polyline fill="none" stroke="#0066FF" stroke-width="0.6422" points="93.231,5.271 89.424,1.478 85.616,5.271 		"/>
	</g>
	<g>
		<polyline fill="none" stroke="#0066FF" stroke-width="0.6422" points="72.221,0.729 76.028,4.521 79.836,0.729 		"/>
		<polyline fill="none" stroke="#0066FF" stroke-width="0.6422" points="84.232,5.271 80.425,1.478 76.617,5.271 		"/>
	</g>
	<g>
		<polyline fill="none" stroke="#0066FF" stroke-width="0.6422" points="63.222,0.729 67.029,4.521 70.837,0.729 		"/>
		<polyline fill="none" stroke="#0066FF" stroke-width="0.6422" points="75.232,5.271 71.425,1.478 67.618,5.271 		"/>
	</g>
	<g>
		<polyline fill="none" stroke="#0066FF" stroke-width="0.6422" points="54.223,0.729 58.03,4.521 61.837,0.729 		"/>
		<polyline fill="none" stroke="#0066FF" stroke-width="0.6422" points="66.233,5.271 62.426,1.478 58.618,5.271 		"/>
	</g>
	<g>
		<polyline fill="none" stroke="#0066FF" stroke-width="0.6422" points="45.223,0.729 49.03,4.521 52.838,0.729 		"/>
		<polyline fill="none" stroke="#0066FF" stroke-width="0.6422" points="57.234,5.271 53.427,1.478 49.619,5.271 		"/>
	</g>
	<g>
		<polyline fill="none" stroke="#0066FF" stroke-width="0.6422" points="36.224,0.729 40.031,4.521 43.839,0.729 		"/>
		<polyline fill="none" stroke="#0066FF" stroke-width="0.6422" points="48.234,5.271 44.427,1.478 40.62,5.271 		"/>
	</g>
	<g>
		<polyline fill="none" stroke="#0066FF" stroke-width="0.6422" points="27.225,0.729 31.032,4.521 34.839,0.729 		"/>
		<polyline fill="none" stroke="#0066FF" stroke-width="0.6422" points="39.235,5.271 35.428,1.478 31.62,5.271 		"/>
	</g>
	<g>
		<polyline fill="none" stroke="#0066FF" stroke-width="0.6422" points="18.225,0.729 22.032,4.521 25.84,0.729 		"/>
		<polyline fill="none" stroke="#0066FF" stroke-width="0.6422" points="30.236,5.271 26.429,1.478 22.621,5.271 		"/>
	</g>
	<g>
		<polyline fill="none" stroke="#0066FF" stroke-width="0.6422" points="9.226,0.729 13.033,4.521 16.841,0.729 		"/>
		<polyline fill="none" stroke="#0066FF" stroke-width="0.6422" points="21.236,5.271 17.429,1.478 13.622,5.271 		"/>
	</g>
	<g>
		<polyline fill="none" stroke="#0066FF" stroke-width="0.6422" points="144.216,0.729 148.023,4.521 151.831,0.729 		"/>
		<polyline fill="none" stroke="#0066FF" stroke-width="0.6422" points="156.227,5.271 152.419,1.478 148.612,5.271 		"/>
	</g>
</g>
</svg>
