<?xml version="1.0" encoding="utf-8"?>
<!-- Generator: Adobe Illustrator 13.0.0, SVG Export Plug-In . SVG Version: 6.00 Build 14948)  -->
<!DOCTYPE svg PUBLIC "-//W3C//DTD SVG 1.1//EN" "http://www.w3.org/Graphics/SVG/1.1/DTD/svg11.dtd">
<svg version="1.1" id="Layer_1" xmlns="http://www.w3.org/2000/svg" xmlns:xlink="http://www.w3.org/1999/xlink" x="0px" y="0px"
	 width="60px" height="60px" viewBox="0 0 60 60" enable-background="new 0 0 60 60" xml:space="preserve">
<g>
	<path fill="#0066FF" d="M60.25,48.017c0,6.571-5.328,11.9-11.9,11.9H12.151c-6.573,0-11.901-5.329-11.901-11.9V11.817
		c0-6.572,5.328-11.9,11.901-11.9H48.35c6.572,0,11.9,5.328,11.9,11.9V48.017z"/>
	<circle fill="#0066FF" stroke="#FFFFFF" stroke-width="1.8634" cx="29.666" cy="29.167" r="25"/>
	<g>
		<g>
			<g>
				<path fill="none" d="M21.869,44.533c-5.275-2.522-10.55-13.304-1.605-12.615"/>
				<path fill="#FFFFFF" d="M22.399,44.218c-2.486-1.28-4.356-3.604-5.529-6.104c-1.434-3.055-0.847-6.023,3.131-5.83
					c0.49,0.023,1.421-0.688,0.522-0.732c-3.032-0.147-5.991,0.92-5.71,4.426c0.287,3.586,3.446,7.286,6.523,8.871
					C21.712,45.041,22.938,44.495,22.399,44.218L22.399,44.218z"/>
			</g>
		</g>
		<g>
			<g>
				<path fill="none" d="M20.722,35.818c0-6.422-1.376-13.991,2.064-19.726c3.669-6.422,3.669,1.606,3.898,5.275
					c0,3.44-0.229,6.881-0.688,10.093"/>
				<path fill="#FFFFFF" d="M21.387,35.641c-0.085-7.063-1.276-14.201,2.629-20.519c1.392-2.251,1.9,4.489,1.926,4.979
					c0.208,3.821-0.113,7.656-0.61,11.442c-0.07,0.533,1.27,0.291,1.33-0.164c0.216-1.65,2.534-18.569-1.754-18.036
					c-2.393,0.297-3.64,4.398-4.254,6.231c-1.722,5.139-0.66,11.129-0.596,16.421C20.063,36.419,21.393,36.16,21.387,35.641
					L21.387,35.641z"/>
			</g>
		</g>
		<g>
			<g>
				<path fill="none" d="M26.915,34.441c0-3.212-1.606-11.468,3.21-11.697c5.275-0.229,3.44,7.798,2.982,10.78"/>
				<path fill="#FFFFFF" d="M27.59,34.396c-0.041-2.761-1.708-10.708,2.481-11.147c4.654-0.488,2.748,7.901,2.362,10.322
					c-0.109,0.691,1.251,0.527,1.35-0.092c0.597-3.755,2.24-11.2-3.603-11.238c-5.699-0.037-3.988,8.889-3.939,12.247
					C26.251,35.205,27.599,35.016,27.59,34.396L27.59,34.396z"/>
			</g>
		</g>
		<g>
			<g>
				<path fill="none" d="M33.565,34.441c0.689-2.063,0-11.926,4.358-9.862c2.982,1.376,1.377,7.798,0.688,9.632"/>
				<path fill="#FFFFFF" d="M34.224,34.334c0.854-2.914,0.172-6.13,1.571-8.936c0.572-1.147,1.611-0.691,2.337,0.05
					c0.693,0.708,0.801,1.927,0.86,2.853c0.128,1.994-0.364,4.147-1.039,6.019c-0.112,0.312,1.184,0.152,1.316-0.215
					c1.025-2.844,2.529-11.242-2.988-9.979c-3.774,0.864-2.581,7.718-3.374,10.424C32.809,34.886,34.116,34.7,34.224,34.334
					L34.224,34.334z"/>
			</g>
		</g>
		<g>
			<g>
				<path fill="none" d="M38.611,34.441c0.298-3.212,1.188-9.173,3.859-5.963c1.632,1.835-1.268,12.844-2.604,14.908"/>
				<path fill="#FFFFFF" d="M39.28,34.376c0.2-2.01,0.396-4.165,1.341-5.982c0.713-1.369,1.585,1.3,1.617,1.498
					c0.166,0.997,0,2.087-0.115,3.08c-0.387,3.346-1.159,7.427-2.884,10.366c-0.354,0.602,0.996,0.539,1.256,0.096
					c1.166-1.987,1.696-4.437,2.231-6.648c0.593-2.449,1.369-5.473,0.684-7.98c-0.365-1.338-2.124-2.139-3.293-1.338
					c-1.918,1.315-1.974,5.015-2.175,7.04C37.88,35.13,39.228,34.907,39.28,34.376L39.28,34.376z"/>
			</g>
		</g>
	</g>
</g>
</svg>
