<?xml version="1.0" encoding="utf-8"?>
<!-- Generator: Adobe Illustrator 13.0.0, SVG Export Plug-In . SVG Version: 6.00 Build 14948)  -->
<!DOCTYPE svg PUBLIC "-//W3C//DTD SVG 1.1//EN" "http://www.w3.org/Graphics/SVG/1.1/DTD/svg11.dtd">
<svg version="1.1" id="Layer_1" xmlns="http://www.w3.org/2000/svg" xmlns:xlink="http://www.w3.org/1999/xlink" x="0px" y="0px"
	 width="190.998px" height="191px" viewBox="0 0 190.998 191" enable-background="new 0 0 190.998 191" xml:space="preserve">
<g>
	<g>
		<g>
			<path fill="#FFFFFF" d="M103.787,182.713c0,4.578-3.71,8.287-8.287,8.287l0,0c-4.577,0-8.287-3.709-8.287-8.287V8.287
				C87.213,3.712,90.923,0,95.5,0l0,0c4.577,0,8.287,3.712,8.287,8.287V182.713z"/>
			<path fill="#FFFFFF" d="M8.287,103.787C3.71,103.787,0,100.078,0,95.5l0,0c0-4.575,3.71-8.287,8.287-8.287h174.424
				c4.579,0,8.287,3.712,8.287,8.287l0,0c0,4.578-3.708,8.287-8.287,8.287H8.287z"/>
		</g>
		<g>
			<path fill="#FFFFFF" d="M39.691,163.029c-3.236,3.235-8.483,3.235-11.721,0l0,0c-3.235-3.235-3.235-8.483,0-11.721
				L151.308,27.973c3.237-3.237,8.484-3.237,11.722,0l0,0c3.234,3.235,3.234,8.482,0,11.719L39.691,163.029z"/>
			<path fill="#FFFFFF" d="M27.971,39.691c-3.235-3.236-3.235-8.483,0-11.719l0,0c3.237-3.237,8.484-3.237,11.721,0l123.338,123.336
				c3.234,3.237,3.234,8.485,0,11.721l0,0c-3.237,3.235-8.484,3.235-11.722,0L27.971,39.691z"/>
		</g>
		<g>
			<path fill="#FFFFFF" d="M17.305,135c-4.262,1.668-9.07-0.435-10.738-4.697l0,0c-1.667-4.262,0.437-9.068,4.697-10.736
				l162.433-63.564c4.261-1.67,9.067,0.435,10.735,4.697l0,0c1.668,4.261-0.435,9.068-4.695,10.737L17.305,135z"/>
			<path fill="#FFFFFF" d="M56,17.305c-1.668-4.262,0.437-9.07,4.697-10.738l0,0c4.263-1.666,9.07,0.437,10.738,4.699L135,173.696
				c1.668,4.263-0.437,9.069-4.697,10.737l0,0c-4.263,1.668-9.07-0.436-10.738-4.697L56,17.305z"/>
		</g>
		<g>
			<path fill="#FFFFFF" d="M12.278,68.138c-4.194-1.834-6.106-6.721-4.271-10.913l0,0c1.834-4.193,6.721-6.104,10.914-4.271
				l159.801,69.908c4.193,1.834,6.104,6.721,4.271,10.915l0,0c-1.832,4.191-6.718,6.104-10.914,4.271L12.278,68.138z"/>
			<path fill="#FFFFFF" d="M122.862,12.276c1.834-4.192,6.721-6.104,10.914-4.27l0,0c4.192,1.834,6.105,6.721,4.271,10.914
				l-69.91,159.803c-1.834,4.192-6.721,6.105-10.913,4.271l0,0c-4.193-1.836-6.106-6.723-4.272-10.914L122.862,12.276z"/>
		</g>
		<circle fill="#0066FF" stroke="#FFFFFF" stroke-width="2.1525" cx="95.5" cy="95.5" r="71.031"/>
		<circle fill="#FFFFFF" cx="95.5" cy="95.5" r="52.089"/>
		<circle fill="none" stroke="#FFFFFF" stroke-width="15.7851" cx="95.499" cy="95.5" r="71.029"/>
	</g>
	<circle fill="#FFFFFF" stroke="#0066FF" stroke-width="6" cx="99.499" cy="146.5" r="17"/>
</g>
</svg>
