<?xml version="1.0" encoding="utf-8"?>
<!-- Generator: Adobe Illustrator 13.0.0, SVG Export Plug-In . SVG Version: 6.00 Build 14948)  -->
<!DOCTYPE svg PUBLIC "-//W3C//DTD SVG 1.1//EN" "http://www.w3.org/Graphics/SVG/1.1/DTD/svg11.dtd">
<svg version="1.1" id="Layer_1" xmlns="http://www.w3.org/2000/svg" xmlns:xlink="http://www.w3.org/1999/xlink" x="0px" y="0px"
	 width="70.998px" height="70.998px" viewBox="0 0 70.998 70.998" enable-background="new 0 0 70.998 70.998" xml:space="preserve">
<g>
	<g>
		<path fill="#FFFFFF" d="M38.58,67.918c0,1.702-1.379,3.08-3.081,3.08l0,0c-1.701,0-3.08-1.378-3.08-3.08V3.08
			c0-1.7,1.379-3.08,3.08-3.08l0,0c1.702,0,3.081,1.38,3.081,3.08V67.918z"/>
		<path fill="#FFFFFF" d="M3.08,38.579c-1.701,0-3.08-1.378-3.08-3.08l0,0c0-1.701,1.379-3.08,3.08-3.08h64.838
			c1.702,0,3.08,1.379,3.08,3.08l0,0c0,1.702-1.378,3.08-3.08,3.08H3.08z"/>
	</g>
	<g>
		<path fill="#FFFFFF" d="M14.754,60.602c-1.203,1.202-3.153,1.202-4.356,0l0,0c-1.203-1.203-1.203-3.154,0-4.357l45.847-45.847
			c1.203-1.203,3.154-1.203,4.357,0l0,0c1.202,1.203,1.202,3.153,0,4.356L14.754,60.602z"/>
		<path fill="#FFFFFF" d="M10.397,14.754c-1.203-1.203-1.203-3.153,0-4.356l0,0c1.203-1.203,3.153-1.203,4.356,0l45.848,45.847
			c1.202,1.203,1.202,3.154,0,4.357l0,0c-1.203,1.202-3.154,1.202-4.357,0L10.397,14.754z"/>
	</g>
	<g>
		<path fill="#FFFFFF" d="M6.433,50.182c-1.584,0.62-3.372-0.161-3.992-1.746l0,0c-0.619-1.584,0.163-3.37,1.746-3.99l60.38-23.629
			c1.584-0.62,3.371,0.162,3.991,1.746l0,0c0.619,1.584-0.162,3.371-1.746,3.991L6.433,50.182z"/>
		<path fill="#FFFFFF" d="M20.816,6.433c-0.62-1.585,0.162-3.372,1.746-3.992l0,0c1.585-0.619,3.372,0.162,3.991,1.747
			l23.629,60.379c0.62,1.584-0.162,3.371-1.746,3.991l0,0c-1.585,0.62-3.372-0.162-3.992-1.746L20.816,6.433z"/>
	</g>
	<g>
		<path fill="#FFFFFF" d="M4.564,25.328c-1.56-0.682-2.271-2.498-1.588-4.057l0,0c0.682-1.559,2.498-2.27,4.057-1.588L66.435,45.67
			c1.559,0.682,2.27,2.498,1.588,4.058l0,0c-0.682,1.558-2.498,2.27-4.058,1.588L4.564,25.328z"/>
		<path fill="#FFFFFF" d="M45.671,4.563c0.682-1.559,2.498-2.27,4.057-1.588l0,0c1.559,0.682,2.27,2.499,1.588,4.058L25.328,66.435
			c-0.682,1.559-2.498,2.27-4.057,1.588l0,0c-1.559-0.682-2.27-2.499-1.588-4.057L45.671,4.563z"/>
	</g>
	<circle fill="#0066FF" stroke="#FFFFFF" stroke-width="0.8001" cx="35.5" cy="35.499" r="26.404"/>
	<circle fill="#FFFFFF" cx="35.5" cy="35.499" r="19.363"/>
	<circle fill="none" stroke="#FFFFFF" stroke-width="5.8677" cx="35.499" cy="35.499" r="26.403"/>
</g>
</svg>
