<?xml version="1.0" encoding="utf-8"?>
<!-- Generator: Adobe Illustrator 13.0.0, SVG Export Plug-In . SVG Version: 6.00 Build 14948)  -->
<!DOCTYPE svg PUBLIC "-//W3C//DTD SVG 1.1//EN" "http://www.w3.org/Graphics/SVG/1.1/DTD/svg11.dtd">
<svg version="1.1" id="Layer_1" xmlns="http://www.w3.org/2000/svg" xmlns:xlink="http://www.w3.org/1999/xlink" x="0px" y="0px"
	 width="525px" height="229px" viewBox="0 0 525 229" enable-background="new 0 0 525 229" xml:space="preserve">
<path fill="#FFFFFF" stroke="#0066FF" stroke-width="9" d="M520.5,212.5c0,6.627-5.373,12-12,12h-492c-6.627,0-12-5.373-12-12v-196
	c0-6.627,5.373-12,12-12h492c6.627,0,12,5.373,12,12V212.5z"/>
<path fill="#0066FF" d="M232.5,211.5c0,6.627-5.373,12-12,12h-202c-6.627,0-12-5.373-12-12v-194c0-6.627,5.373-12,12-12h202
	c6.627,0,12,5.373,12,12V211.5z"/>
<path fill="#0066FF" d="M406.5,216.5c0,6.627-5.373,12-12,12h-54c-6.627,0-12-5.373-12-12v-204c0-6.627,5.373-12,12-12h54
	c6.627,0,12,5.373,12,12V216.5z"/>
</svg>
