<?xml version="1.0" encoding="utf-8"?>
<!-- Generator: Adobe Illustrator 13.0.0, SVG Export Plug-In . SVG Version: 6.00 Build 14948)  -->
<!DOCTYPE svg PUBLIC "-//W3C//DTD SVG 1.1//EN" "http://www.w3.org/Graphics/SVG/1.1/DTD/svg11.dtd">
<svg version="1.1" id="Layer_1" xmlns="http://www.w3.org/2000/svg" xmlns:xlink="http://www.w3.org/1999/xlink" x="0px" y="0px"
	 width="122.682px" height="122.681px" viewBox="0 0 122.682 122.681" enable-background="new 0 0 122.682 122.681"
	 xml:space="preserve">
<circle fill="#FFFFFF" stroke="#0066FF" stroke-width="7" cx="61.341" cy="61.341" r="57.841"/>
<g>
	<path fill="none" stroke="#0066FF" stroke-width="3.0047" d="M6.317,51.446c25.202,0,45.634-8.407,45.634-18.774"/>
	<path fill="none" stroke="#0066FF" stroke-width="3.0047" d="M5.097,72.673c24.199,0,43.817,8.072,43.817,18.025"/>
	<g>
		<g>
			<path fill="none" d="M51.576,32.857c-7.137,2.629-1.127,15.399,0.375,10.141c-7.512-2.629-6.385,13.897,0,9.766
				c-9.014-7.512-12.395,14.648,0.376,10.892c-3.381-2.629-10.517-2.629-10.517,3.004c0.375,4.883,7.887,10.141,12.019,8.639
				c-1.127-4.507-8.639-1.502-8.263,2.629c0.375,3.756,6.761,5.634,9.766,6.01c-7.888-4.507-8.264,10.141-2.63,6.76
				c-0.751-1.126-1.502-0.375-2.253-0.751"/>
			<path fill="#0066FF" d="M50.28,31.107c-4.814,2.257-6.11,7.231-4.129,11.999c1.628,3.917,6.932,4.581,8.58,0.244
				c0.37-0.973-0.036-2.044-1.112-2.337c-13.711-3.733-11.611,19.688-0.372,13.5c1.257-0.692,2.44-2.298,0.936-3.446
				c-5.325-4.062-11.563-1.271-13.021,5.002c-1.773,7.635,5.223,11.244,11.71,9.615c1.438-0.361,3.598-2.443,1.688-3.725
				c-4.313-2.894-14.901-3.51-15.586,3.789c-0.708,7.552,8.686,13.17,15.4,11.58c1.041-0.247,2.885-1.463,2.358-2.807
				c-2.223-5.677-10.627-4.036-13.241,0.616c-3.796,6.754,5.836,10.174,10.847,10.945c2.343,0.36,5.786-2.581,2.663-4.129
				c-4.7-2.33-9.675-0.302-10.943,4.833c-1.297,5.252,3.657,7.791,7.941,5.663c1.345-0.668,2.355-2.289,0.936-3.446
				c-1.195-0.974-2.018-0.982-3.489-1.2c-2.901-0.43-5.894,3.711-1.99,4.289c0.402-0.057,0.741,0.043,1.017,0.302
				c0.312-1.148,0.624-2.297,0.936-3.446c0.866,0.432,1.094,0.398,0.686-0.103c-0.269-0.58-0.264-1.22-0.239-1.839
				c0.074-1.858,0.449-1.759,1.812-1.083c0.888-1.376,1.775-2.753,2.663-4.129c-1.972-0.303-3.848-0.864-5.609-1.817
				c-0.732-0.402-1.351-0.94-1.853-1.615c-1.475-1.788,1.434-3.888,2.062-2.285c0.786-0.936,1.572-1.872,2.358-2.807
				c-2.995,0.71-6.21-2.68-7.7-4.778c-2.893-4.074,1.75-4.993,4.511-3.14c0.563-1.242,1.125-2.483,1.688-3.725
				c-3.057,0.768-4.765-1.066-4.907-4.077c-0.062-1.277,0.256-2.489,0.813-3.624c0.509-1.036,0.629-0.536,2.031,0.534
				c0.312-1.149,0.624-2.297,0.936-3.446c-1.104,0.608-1.104-6.23-0.372-6.031c-0.371-0.779-0.741-1.559-1.112-2.337
				c2.938,0.541,3.891,0.209,2.856-0.998c-0.448-0.668-0.609-1.577-0.79-2.343c-0.415-1.76-0.148-3.862,1.635-4.697
				C56.467,32.922,53.265,29.708,50.28,31.107L50.28,31.107z"/>
		</g>
	</g>
</g>
</svg>
