<?xml version="1.0" encoding="utf-8"?>
<!-- Generator: Adobe Illustrator 13.0.0, SVG Export Plug-In . SVG Version: 6.00 Build 14948)  -->
<!DOCTYPE svg PUBLIC "-//W3C//DTD SVG 1.1//EN" "http://www.w3.org/Graphics/SVG/1.1/DTD/svg11.dtd">
<svg version="1.1" id="Layer_1" xmlns="http://www.w3.org/2000/svg" xmlns:xlink="http://www.w3.org/1999/xlink" x="0px" y="0px"
	 width="132.282px" height="132.283px" viewBox="0 0 132.282 132.283" enable-background="new 0 0 132.282 132.283"
	 xml:space="preserve">
<g>
	<g>
		<path fill="#0066FF" d="M71.881,126.543c0,3.169-2.569,5.739-5.738,5.739l0,0c-3.171,0-5.74-2.57-5.74-5.739V5.74
			c0-3.169,2.569-5.74,5.74-5.74l0,0c3.169,0,5.738,2.57,5.738,5.74V126.543z"/>
		<path fill="#0066FF" d="M5.739,71.881c-3.17,0-5.739-2.57-5.739-5.74l0,0c0-3.17,2.569-5.74,5.739-5.74h120.803
			c3.172,0,5.74,2.57,5.74,5.74l0,0c0,3.169-2.568,5.74-5.74,5.74H5.739z"/>
	</g>
	<g>
		<path fill="#0066FF" d="M27.489,112.91c-2.241,2.242-5.875,2.242-8.117,0l0,0c-2.241-2.241-2.241-5.875,0-8.116l85.421-85.421
			c2.241-2.242,5.876-2.242,8.118,0l0,0c2.239,2.241,2.239,5.875,0,8.116L27.489,112.91z"/>
		<path fill="#0066FF" d="M19.372,27.489c-2.241-2.242-2.241-5.875,0-8.116l0,0c2.242-2.242,5.876-2.242,8.117,0l85.422,85.421
			c2.239,2.241,2.239,5.875,0,8.116l0,0c-2.242,2.242-5.877,2.242-8.118,0L19.372,27.489z"/>
	</g>
	<g>
		<path fill="#0066FF" d="M11.985,93.498c-2.951,1.156-6.282-0.301-7.438-3.253l0,0c-1.155-2.951,0.303-6.281,3.253-7.437
			l112.498-44.022c2.95-1.155,6.279,0.301,7.435,3.253l0,0c1.155,2.952-0.302,6.281-3.252,7.437L11.985,93.498z"/>
		<path fill="#0066FF" d="M38.784,11.985c-1.154-2.952,0.303-6.281,3.254-7.437l0,0c2.951-1.154,6.281,0.302,7.437,3.254
			l44.023,112.497c1.154,2.952-0.302,6.281-3.254,7.436l0,0c-2.951,1.155-6.28-0.301-7.436-3.253L38.784,11.985z"/>
	</g>
	<g>
		<path fill="#0066FF" d="M8.504,47.191c-2.905-1.271-4.229-4.654-2.958-7.559l0,0c1.271-2.904,4.655-4.228,7.558-2.958
			l110.676,48.417c2.904,1.271,4.228,4.655,2.957,7.56l0,0c-1.269,2.903-4.653,4.228-7.559,2.958L8.504,47.191z"/>
		<path fill="#0066FF" d="M85.092,8.502c1.27-2.904,4.654-4.228,7.559-2.958l0,0c2.904,1.271,4.229,4.655,2.959,7.559L47.191,123.78
			c-1.271,2.904-4.654,4.229-7.56,2.958l0,0c-2.903-1.271-4.229-4.655-2.958-7.559L85.092,8.502z"/>
	</g>
	<circle fill="#FFFFFF" stroke="#0066FF" stroke-width="1.4908" cx="66.141" cy="66.142" r="49.195"/>
	<circle fill="#0066FF" cx="66.142" cy="66.142" r="36.076"/>
	<circle fill="none" stroke="#0066FF" stroke-width="10.9324" cx="66.141" cy="66.142" r="49.193"/>
</g>
</svg>
