<?xml version="1.0" encoding="utf-8"?>
<!-- Generator: Adobe Illustrator 13.0.0, SVG Export Plug-In . SVG Version: 6.00 Build 14948)  -->
<!DOCTYPE svg PUBLIC "-//W3C//DTD SVG 1.1//EN" "http://www.w3.org/Graphics/SVG/1.1/DTD/svg11.dtd">
<svg version="1.1" id="Layer_1" xmlns="http://www.w3.org/2000/svg" xmlns:xlink="http://www.w3.org/1999/xlink" x="0px" y="0px"
	 width="130px" height="218px" viewBox="0 0 130 218" enable-background="new 0 0 130 218" xml:space="preserve">
<g>
	<path fill="#0066FF" d="M122,206c0,6.627-5.373,12-12,12H66c-6.627,0-12-5.373-12-12V12c0-6.627,5.373-12,12-12h44
		c6.627,0,12,5.373,12,12V206z"/>
	<path fill="#0066FF" d="M130,109c0,6.627-5.373,12-12,12H12c-6.627,0-12-5.373-12-12v-2c0-6.627,5.373-12,12-12h106
		c6.627,0,12,5.373,12,12V109z"/>
</g>
</svg>
